<svg xmlns="http://www.w3.org/2000/svg" viewBox="0 0 269.37 376.29"><defs><style>.cls-1{isolation:isolate;}.cls-2{fill:#fff;}.cls-3{fill:#eb5f12;}.cls-4{fill:#fdc107;}.cls-10,.cls-5{fill:#211d1a;}.cls-6{fill:#eb5c17;}.cls-7{fill:#f9be10;}.cls-8{fill:#e52e1d;}.cls-9{fill:none;}.cls-10{opacity:0.49;mix-blend-mode:overlay;}</style></defs><title>Asset 2_1SVGWEB</title><g class="cls-1"><g id="Layer_2" data-name="Layer 2"><g id="TemplateGuide"><path class="cls-2" d="M250.67,186.37c-5.11-7.51-8.51-10.78-9.68-19.36a5.13,5.13,0,0,0-2.14-3.5c-15.86-10.93-6.86-26.13,3-39.09,1.17-1.56,4.1-4.44,3.76-7a5.18,5.18,0,0,1,1.47-4.37c5.91-5.93,20.74-19.91,20.5-22.82l.22-1.78c3.38-15.07.71-33.36-3.2-48.9A5.24,5.24,0,0,0,256,37l-8.67,7.94c-3.13,3.55-18.43,12.79-8.35,4.4a5.18,5.18,0,0,0,1.83-3.21c3.44-22.23,15.67-29.13-10-39.33a5.22,5.22,0,0,0-6.25,1.89C217,19.88,201,31.19,186.8,38.89a5.23,5.23,0,0,1-7.26-6.76c17-37.42-19.25-46.51-35.41-3.73a5.22,5.22,0,0,1-7.86,2.47C120.79,20,111.65,45.61,108.1,61.33A5.16,5.16,0,0,1,101,65a3.56,3.56,0,0,1-1.86-1.72,5.17,5.17,0,0,0-4.76-3.17c-17,.45-22.48.13-30.81,17.45a5.23,5.23,0,0,0,.31,5.12c9.86,15,8.2,27.86,24.79,22.26a5.25,5.25,0,0,1,6.7,6.54c-6.84,22-29.29-2.41-32.61,23.61a5.21,5.21,0,0,1-3.67,4.34c-29.89,8.74-5.24,34.08-16.94,31.89a5.22,5.22,0,0,0-5.38,2.33c-5.7,9-8.24,10.09-17.52,12.32a5.37,5.37,0,0,0-3.78,3.57,5,5,0,0,1-2,2.83,5.31,5.31,0,0,0-2.31,3,63.35,63.35,0,0,0-3.44,16.77,6.36,6.36,0,0,0,.3,2.12c.23.85-1,1.86-2.21,2.75a5.17,5.17,0,0,0-2,3.48c-.43,3.71-.15,7.68-.89,11.16a5.17,5.17,0,0,0,.9,4.08c9.92,13.88,36,22.9,9.73,26a5.23,5.23,0,0,0-4.22,3.16L.41,286a5.23,5.23,0,0,0,1,5.59l18.58,20a5.23,5.23,0,0,0,2.85,1.58c3.77.72,11.07,2.46,10.66,5.42a71.17,71.17,0,0,0,2,9.55,5.23,5.23,0,0,1-1.81,5.47c-12.9,10.2-43.61,32.39-16.83,42.2a5,5,0,0,0,1.47.31c14.42.94,28.55-3.69,36.46-15.6A5.28,5.28,0,0,1,61.86,359c9.22,5.37,23.82-1.61,24.33-13a3.81,3.81,0,0,1,.09-.82c.66-2.79-1.22-14.75,2.51-13.13,55.81,8.32,135.5-39.2,133.52-109.25a5.19,5.19,0,0,1,4.76-5.35c13.79-1.09,28.91-15.82,24.22-29.85A5.07,5.07,0,0,0,250.67,186.37Z"/><path class="cls-3" d="M100.08,273c-4.8.63-5.9-4.77-1.56-6.62A3.49,3.49,0,1,1,100.08,273Zm-2.69-2.84c.9,2.28,5.43,1.23,4.72-1.28C101.19,266.57,97.93,267.85,97.39,270.11Z"/><polygon class="cls-4" points="87.48 72.84 80.58 73.28 76.32 80.46 83.66 93.21 100.82 87.18 101.16 77.41 93.74 76.12 87.86 81.65 87.48 72.84"/><polygon class="cls-5" points="185.7 72.97 187.58 79.46 229.58 41.63 235.95 12.98 185.7 72.97"/><polygon class="cls-5" points="165.23 84 186.57 52.03 163.18 63.8 160.53 84.51 165.23 84"/><polygon class="cls-5" points="188.83 92.31 192.37 97.35 212.55 89.23 218.48 76.04 188.83 92.31"/><path class="cls-5" d="M69.06,348.78l2.21-.5a3.68,3.68,0,0,0,2.84-3.41l.57-12.72a1.42,1.42,0,0,0-1.75-1.44h0a1.41,1.41,0,0,0-1,1L67.39,347A1.42,1.42,0,0,0,69.06,348.78Z"/><path class="cls-5" d="M42.24,356.69l14.08-21.46a1.35,1.35,0,0,0-.38-1.86l-.85-.55a1.32,1.32,0,0,0-1.59.09L19,361.85a1.34,1.34,0,0,0,1,2.35l12.08-1.31A13.94,13.94,0,0,0,42.24,356.69Z"/><path class="cls-3" d="M149,199.09c-1.64-.7-1.5-2.91,0-3.87,1.95-1.05,4.32.06,3.75,2.12a.23.23,0,0,0-.11.28h0a4,4,0,0,1-3.33,1.54A.36.36,0,0,0,149,199.09Zm-.43-1.58c.32,2.17,3.75.39,3.41-1.18C151.55,194.42,148,195.71,148.52,197.51Z"/><circle class="cls-3" cx="102.67" cy="175.79" r="1.24"/><circle class="cls-6" cx="92.87" cy="253.2" r="1.24"/><circle class="cls-3" cx="167.33" cy="192.06" r="1.24"/><path class="cls-7" d="M127.27,228.43l0,.32.1.3-.63,1a1.82,1.82,0,0,0-.64.23c-2.87,1.94-5.87,1.56-8.85.39a9.73,9.73,0,0,0-4.07-1.09A1.6,1.6,0,0,0,113,229a12.2,12.2,0,0,0-3.5-1.6,1.72,1.72,0,0,0-.64,0,32.41,32.41,0,0,0-5.09-4.49h0c-2.25-3-5-5.64-6.72-9.05-.57-2.54-1.15-5.07-1.72-7.61-.64-2.81.5-5.46.78-8.19a11.22,11.22,0,0,0,1.54-4.94,1.68,1.68,0,0,0,1.16-1.92,5.63,5.63,0,0,0,2.32-3.78h0a2.77,2.77,0,0,0,1.23-1.87c2.33-1.85,3.81-4.47,6.11-6.44,4.73-4,10.3-5.32,16.27-6.17,2.26,2.83,1.21,6.23,1.54,9.35.28,2.55.14,5.15.19,7.73-1,1.35,0,2.69,0,4h0c-1.12,3.47-.66,7-.22,10.48l0,0a.73.73,0,0,0-.43.91c.08.53.17,1.07.26,1.6a69.9,69.9,0,0,0,1.8,12.63,14.71,14.71,0,0,1,.46,6.12h0A2.34,2.34,0,0,0,127.27,228.43Zm-9-46.92c-1.1-.48-.56-1.49-.77-2.26a16.29,16.29,0,0,0,2.19-.84,2.49,2.49,0,0,1,2.54-.47c.76,4.42-.39,9.24,1.32,13.78,0-5.12,0-10.23,0-15.53-3.73-.36-6.71,1.87-10.25,2.85,1.35,1.1,1.88,2.5,2.76,3.66-2.77,1.68-6.19,2.38-8.44,5.34,4.42,2.78,8.35,5.9,13.44,8.47,0-5.75-.15-10.83-.62-16.12ZM123,208c-2.65,6.07-9.59,7.77-12.44,13.49a16.09,16.09,0,0,0,11.24,4.05C127.41,221,124,213.9,123,208Zm-3.77.77-.64-1c-4.56,1.41-9.33,1.48-14.17,2.26.56,3.91.78,7.5,4.49,9.86Zm-15.63-2.32c1.64.36,3.19.82,4.69.24,3.15-1.24,6.28-2.29,9.77-2.07,1.5.09,2.31-.87,1.88-2.56-9-1.77-8.17,2.13-18-3.64Zm13.19-7.87c-4.2-3.38-8.19-5.55-11.85-8.21-2.36,1.76-2.76,3.66-1.87,6.09C107.3,197.43,111.31,199.27,116.78,198.57Z"/><path class="cls-7" d="M41.74,303l-.05-.15-.08-.14.19-.57a.88.88,0,0,0,.29-.18,4.45,4.45,0,0,1,4.23-1.16,4.87,4.87,0,0,0,2.08.08.76.76,0,0,0,.18.26,6,6,0,0,0,1.87.38.81.81,0,0,0,.31-.06,15.93,15.93,0,0,0,3,1.61h0A31.15,31.15,0,0,1,58,306.73l1.66,3.48c.62,1.29.36,2.7.53,4a5.56,5.56,0,0,0-.2,2.56.83.83,0,0,0-.35,1.06,2.77,2.77,0,0,0-.71,2.07h0a1.35,1.35,0,0,0-.39,1c-.92,1.15-1.34,2.57-2.24,3.78-1.84,2.47-4.39,3.7-7.18,4.77-1.4-1.12-1.27-2.88-1.77-4.35-.42-1.2-.64-2.47-.94-3.71.34-.77-.28-1.31-.47-2h0a11.69,11.69,0,0,0-1-5.08h0A.35.35,0,0,0,45,314l-.3-.75a34.84,34.84,0,0,0-2.26-5.9,7.26,7.26,0,0,1-.89-2.9h0A1.17,1.17,0,0,0,41.74,303Zm9.5,21.67c.59.11.44.66.62,1a7.34,7.34,0,0,0-1,.65,1.25,1.25,0,0,1-1.18.5c-.85-2.05-.82-4.5-2.15-6.51.56,2.47,1.11,4.95,1.69,7.51,1.84-.24,3-1.65,4.63-2.51a8.44,8.44,0,0,1-1.73-1.46c1.15-1.12,2.72-1.83,3.49-3.51-2.44-.85-4.68-1.93-7.42-2.61.63,2.77,1.26,5.21,2.07,7.71Zm-5.19-12.27c.61-3.22,3.78-4.8,4.53-7.88a8,8,0,0,0-5.88-.72C42.48,306.63,44.92,309.69,46.05,312.43Zm1.74-.79.42.41a51.19,51.19,0,0,1,6.59-2.65c-.7-1.83-1.2-3.54-3.25-4.27Zm7.8-.59a3.9,3.9,0,0,0-2.29.4,11.25,11.25,0,0,1-4.49,2.07c-.73.12-1,.68-.63,1.44,4.55-.13,3.71-1.92,9.11-.22Zm-5.5,5.25c2.4,1.17,4.56,1.78,6.62,2.66a2.33,2.33,0,0,0,.23-3.15C54.79,315.81,52.65,315.36,50.09,316.3Z"/><polygon class="cls-4" points="44.38 183.59 49.74 184.52 52.22 188.69 53.1 183.68 56.98 181.86 61.28 181.72 64.07 190.22 54.82 200.38 43.45 196.08 41.29 188.04 44.38 183.59"/><polygon class="cls-5" points="142.81 116.11 147.2 118.35 149.55 124.96 149.62 126.07 147.35 135.48 147.06 135.83 141.71 135.91 141.55 132.19 136.61 129.05 135.02 123.7 135.21 122.13 136.3 118.08 142.81 116.11"/><path class="cls-8" d="M21.47,203.39c.7-.12.92-.69,1.13-1.25.92-.24,1-1.19,1.28-1.91.75-.66,1.87-.81,2.09-1.9a.93.93,0,0,0,.86-.57c3.07.28,2.65,2.93,3.31,4.85-1.06,1.08-2.14-.34-3.83.41a5.93,5.93,0,0,0-1.26,7.51c.92,1.77.65,3.95,1.58,5.73C34.3,219.19,34,206.14,45,222.07c3.07,6.66,10.9,9.69,14.32,16.07.39,1,1.5,1.39,2.35,1.79,7.24,2.66,15.5,7.67,23.3,5.19a10.94,10.94,0,0,1,5.41-1c3.19.2,6-1.29,9.39-2.17-.92,4.15-5.36,4.09-6.53,7.59-1.8-.17-2.66.8-3,2.44a8.61,8.61,0,0,0-6.5,3.75,2.4,2.4,0,0,0-1.85,1h0c-4.62,1.84-9.94.32-14.25,3.11-.86-.13-1.83-.58-2.56-.33-4,1.62-6.95-1.86-10.64-2.38-7.7-1.18-15.81-3.64-21-9.7-5.68-5.62-12.63-10.14-17.29-16.66a1.44,1.44,0,0,0-.35-1.68c.36-1.51-.58-2.93-.35-4.62a35.51,35.51,0,0,1,6.69-4.48c.22-1.32,1.89-2.72.46-3.92a11,11,0,0,0-2-4.44c.15-.57.16-1.34-.45-1.63C19.73,207.69,20.8,205.58,21.47,203.39Zm12.9,27a.87.87,0,0,0-.48-.94c.09-1.64-.89-2.25-2.57-2.79a3.57,3.57,0,0,0,2.4,2.88.91.91,0,0,0,.56.9c.1.78.7.94,1.31,1.1-.07.32,0,.49.29.5C35.42,231.32,35.34,230.49,34.37,230.37Zm-3.61,6.21c.43-5.21-5.44-5.75-6.18-10.57-.35,2.1-1.42,2.75-2.65,3.65C25.05,231.8,27.14,234.81,30.76,236.58Zm31.44,16c-2.74-1.93-5.84-1.72-9.41-1.65.66.9,0,1.85,1,2.43C56.56,253.05,59.24,251.38,62.2,252.54ZM37,222.08c1.35,2.62,2.6,4.4,4.91,5.2C40.66,225.53,40.53,222.73,37,222.08Zm26.77,30.31a3.12,3.12,0,0,0,2.9.28C65.36,252.42,64.8,251.94,63.79,252.39Z"/><path class="cls-7" d="M167.29,102.57a.49.49,0,0,0,0,.52.47.47,0,0,0,0,.52.36.36,0,0,0,.07.18l-.07.34h0a.45.45,0,0,0,0,.52.27.27,0,0,0-.07.31c-.75.59-1.22-.09-1.78-.39,0-.46.56-.37.78-.9a1.83,1.83,0,0,0-1.32-2c-.58-.21-1-.76-1.57-1a1.71,1.71,0,0,0-1.15,1.55,1.37,1.37,0,0,1-1.38,1.28,6.11,6.11,0,0,1-2.83-.24,11.06,11.06,0,0,0-3.43-.39c-1.06,0-2.15.32-3.2-.18a1.13,1.13,0,0,0-.9.1,24.09,24.09,0,0,0-5.15,2.38,2.89,2.89,0,0,0-1.19,1.39,3.41,3.41,0,0,1-1,1.37,9.33,9.33,0,0,0-1.65,2.48c-.43-.73-.14-1.37-.08-2,0-.38.2-.75-.06-1.12a.79.79,0,0,0,.15-1.18h0a2.67,2.67,0,0,0,.66-2.21h0a.73.73,0,0,0,.19-.63h0a7.08,7.08,0,0,1,1.38-1.8,4.48,4.48,0,0,0,1.16-1.91h0c.22-.15.54-.26.65-.47a2.73,2.73,0,0,1,1.95-1.29,2.32,2.32,0,0,0,.94-.43,13.24,13.24,0,0,1,3-1.63,5.28,5.28,0,0,1,3.22-.63h.53l6.26-.14,1.15.22h0a.44.44,0,0,0,.43.3c.24.42.75.54,1.06,1a10.64,10.64,0,0,1-.55,2.43c.23.34.21.85.73,1a3.3,3.3,0,0,0,1.38.57h0a.46.46,0,0,0,.14.17.27.27,0,0,0,.31.1A4.23,4.23,0,0,1,167.29,102.57Zm-8.63-3.33a.27.27,0,0,0,.31.11c.32.39.67.32,1.17.08a1.12,1.12,0,0,0-1.15-.14.32.32,0,0,0-.32-.08c-.19-.15-.36-.06-.53,0,0-.08-.1-.1-.17,0l.17,0A.42.42,0,0,0,158.66,99.24Zm-.51-2.16c1,1.26,2.45.14,3.64,1.06a1.52,1.52,0,0,1-.18-1.38A21.62,21.62,0,0,0,158.15,97.08Zm-10.45,3.08a4.51,4.51,0,0,0,2.46-1.62c-.33-.06-.38-.43-.73-.34C148.86,98.85,148.61,99.8,147.7,100.16Zm12.12,1.51a2.8,2.8,0,0,0-2.2-.13C158.27,101.66,158.9,102.27,159.82,101.67Zm-12.45-1.14a1,1,0,0,0-.71.56C147,100.86,147.24,100.85,147.37,100.53Z"/><path class="cls-4" d="M75.86,152.36c5.92,5.48,2,14.63-6,16.39C60,170.29,51.58,162,57.1,154.09a1,1,0,0,0,.91-1h0c5.44-2.83,10.43-4.19,16.48-1.55C74.68,152.09,75.26,152.23,75.86,152.36Zm-.56,7.38C77.12,150,60,152.42,59,159.63,57.76,168.28,74.93,168.23,75.3,159.74Z"/><path class="cls-8" d="M233,187.32c7.49-.64,9.19,6.76,3.88,12.61-6.93,6.9-17.81,7.53-17.64-.18.47-.48.37-.8.18-1.09h0c2.78-4.88,6-8.68,12.08-10.95C231.89,187.89,232.42,187.62,233,187.32Zm3.42,4.37c-3.67-6.44-15.76,5.36-12.78,9.9C227.13,207.09,240.53,196.54,236.38,191.69Z"/><path class="cls-8" d="M81.87,282.71a4.34,4.34,0,0,1-2.93-4,4.37,4.37,0,1,0,3.44,5.73,4.17,4.17,0,0,0,.23-1.55A3.8,3.8,0,0,1,81.87,282.71Z"/><path class="cls-7" d="M223.14,169.6a4.35,4.35,0,0,1-.75,4.9,4.41,4.41,0,1,0,.35-5.55A3.54,3.54,0,0,1,223.14,169.6Z"/><path class="cls-8" d="M87.34,148.11a2.82,2.82,0,0,1-3.14-.66,2.81,2.81,0,0,0-1.08,3.47,2.83,2.83,0,1,0,5.22-2.19,2.62,2.62,0,0,0-.56-.85A2.3,2.3,0,0,1,87.34,148.11Z"/><path class="cls-7" d="M86.43,138.24a2.83,2.83,0,0,1,1.17-3,2.86,2.86,0,1,0-1,3.46A1.93,1.93,0,0,1,86.43,138.24Z"/><path class="cls-8" d="M30.54,292.13A5.31,5.31,0,0,1,26,296.08a5.34,5.34,0,1,0,4.68-4.87A5,5,0,0,1,30.54,292.13Z"/><path class="cls-7" d="M217.25,105.35q1,2.41,1.94,4.84-2.77,6.7-5.54,13.42l-5.47,2.53c-5.59,14-3.74,26.49-9.73,38.9.31,1.76.63,3.53.94,5.29l-1.71,4.11q-.24,11.88-.47,23.75l12.28-9.31c-3.83-10.3,1.64-26.57,5.9-31.23,1.47-15.77,9.28-31,17-40.76-.49-1.49-1-3-1.46-4.45L255.7,87.09c2.11-8.87,1.95-24.77-.17-33.25C242.65,65.63,225.33,88.61,217.25,105.35Zm32.64-18.76-1.58,2,2.46-24.45a89.93,89.93,0,0,1,1.12,10C251.82,76.68,249.89,86.59,249.89,86.59Z"/><path class="cls-5" d="M194.43,166.45c-15.89,21.81-33.13,44.27-51.82,67.17l3.36-.12-7.8,5.53q-3.48,4.22-6.94,8.37l-15.46,22.65,5.17-10.47,0-.07C104.1,279.3,87.36,297.9,71,315.33l4.52,4.55,2.62-1.52c1,.19,2.24.42,3.68.64l3.61-5.8L90,315.07,89.85,320a118,118,0,0,0,55.57-8.31l51.23-41.77a84.36,84.36,0,0,0,10-22.28c5.47-19.24,2.82-36.31,1.66-43.29A108.57,108.57,0,0,0,194.43,166.45Zm-20.11,34.62,16.1-17.74-19.24,27.21-17.51,17.39ZM110.18,317.51l-.67-1.45,9.5-4.4Zm-8.52-4.33,18.06-11.88,2.79,2.23Zm5.91-20.79L84.86,306.67l17.49-13.11s7.8-9.13,13.22-16.91,19.57-24.85,19.57-24.85S129.68,264.35,107.57,292.39Zm41.28-56.47L150,238.4l-7.75,7.1Zm41.9-29.68-12.88,12.23s-10.16,6.21-13.19,12.13c-1.83,3.57-9.26,9.93-14.84,14.39a.49.49,0,0,1-.64-.73l7.24-7.09,17.74-21.25,13.06-8.06,5.83-11.22Zm3-15.69-7.34,10.67,7.92-16.45Z"/><path class="cls-5" d="M156.3,306.42l1.52-.86c5.84-3.36,24.26-13.95,37.54-33.68Z"/><path class="cls-2" d="M111,287.25l2-2.18c4.3,3.9,8.81,7.1,13.4,11.26.26-7.61-3.57-12.42-8.81-16.6l.89-1,.87-.95c5,2.49,9.38,9.8,9.86,16.27,7.37.29,11.21,1.61,14,4.85l-1.82,2a47.93,47.93,0,0,0-5.88-3.44,43.28,43.28,0,0,0-6.26-1.7l-.85,2,8.65,7.84L134.81,308l-20-18.15C113.61,288.76,112.15,288.33,111,287.25Z"/><path class="cls-2" d="M169.76,272.09c-5.76,4.52-7.91,4.75-13,.64a64.32,64.32,0,0,1-8.72-8.26,30.4,30.4,0,0,1-4.89-8.27,5.32,5.32,0,0,1,1.13-4.75A5.16,5.16,0,0,1,149,251c3.12,1.63,5.88,3.92,8.92,6l-2.7,3c-2.12-1.92-4.22-4-6.5-5.8-.73-.58-2-.52-3-.75.08,1-.17,2.27.31,3.06a48.26,48.26,0,0,0,14.24,14.91c3.14,2.12,4.65,1.59,8.2-2.07.2-.22.42-.42.69-.69l2,1.85Z"/><path class="cls-2" d="M202.19,232.9l-2,2.23-22.25-10.41-.22.27,17.35,15.74-1.85,2-23.6-21.4,2.73-3,22.46,11.07c-5.92-6-14.71-14.49-20.26-20.08l1.94-2.13C184,214.8,194.68,225.3,202.19,232.9Z"/><path class="cls-2" d="M166.07,255.88l4.24-5.21c-4.88-4.43-10.84-10.2-15.76-14.65l2.22-2.45c7.55,7.45,16.22,16.28,23.82,23.78l-1.79,2L172,253.14l-4,4.93,6.28,6.27-2,2.21-22.8-22.14,1.81-2Z"/><path class="cls-2" d="M160.35,232l7-7.73,2.18,2-5.1,5.62,10.86,9.85,4-4.44,1.92,1.74-4.34,4.8,6.37,5.77,4.75-5.24,2.28,2.07-7,7.69Z"/><path class="cls-2" d="M143.36,295.58l2.5-2.76-19.48-17.66-2.48,2.74L121.81,276l7.07-7.8,2.15,2-2.46,2.72,19.48,17.66,2.15-2.38,2.05,1.86-6.78,7.47Z"/><path class="cls-2" d="M160.89,283l-2,2.25c-7.15-6.49-16.61-15.15-23.84-21.7l-2.77,3.05-2.09-1.9,8-8.8,2.09,1.9-3.17,3.5C144.24,267.8,153.7,276.46,160.89,283Z"/><path class="cls-5" d="M54.78,309.12l-27.14-7L13.3,286.63l5.93-14,20.29-4.38,26.12,5.84-3.33,12-8.38-1.46-3.56,10.62,8,1.93ZM42.9,282.46l-4.63-1.59L27.2,283.1l7.06,7.63,5.21,2Z"/><path class="cls-5" d="M42.37,220.19l25.44,27.3,14.07-14.23,9.93,10.1L67.3,267.84,32.11,229.62Z"/><path class="cls-5" d="M89,234,72.5,208.57l-3.27-22.79L84.62,175l20.15,13.47,17.49,23.83-11.86,7.6-6.06-8.5L94,218.11l5.42,8.64Zm7.13-33.71-2.35-3.88-11.46-6.25,2,12.74,1.81,3.81Z"/><path class="cls-5" d="M128.9,196.89l-25.25-36.35,10.95-8.24,24.83,15.16-15-21.47,10.29-7.15,26.81,38.67-14.72,9.22-17.06-10.54,9.41,13.69Z"/><path class="cls-5" d="M182,116.51l-14.48,8,2.65,4.2,16-5.87,10.7,23.31L173.13,168l-8.47-9.16,18.43-18-1.88-4-17.89,10.59-9.5-23.78L175.88,106Z"/><path class="cls-9" d="M120,117.94l-4.61,8.75C119.36,126.67,121.34,121.14,120,117.94Z"/><path class="cls-9" d="M111.91,125.61l4.78-9.92C111.9,115.33,108.52,123,111.91,125.61Z"/><path class="cls-7" d="M116.69,115.69l1-2.18c-4,0-8.36,3.44-9.43,8a6,6,0,0,0,2.62,6.13l1-2C108.52,123,111.9,115.33,116.69,115.69Z"/><path class="cls-7" d="M115.34,126.69l-1.09,2.07a8.25,8.25,0,0,0,4.4-1,1.4,1.4,0,0,1,1-.76c3.58-3.56,3.86-6.78,3.28-10.75-.32-.11-.58-.27-.48-.72a7.68,7.68,0,0,0-.79-.73L120,117.94C121.34,121.14,119.36,126.67,115.34,126.69Z"/><polygon class="cls-7" points="122.89 116.23 122.89 116.23 122.89 116.23 122.89 116.23"/><path class="cls-5" d="M170.91,12.31a4,4,0,0,0-5.35,1.87l-47.82,99.33a6.15,6.15,0,0,1,3.88,1.27l51.09-97,.07-.12A4,4,0,0,0,170.91,12.31Z"/><path class="cls-5" d="M117.85,115.94a4.47,4.47,0,0,0-1.16-.25l-4.78,9.92-1,2-18,37.43a1,1,0,0,0,1.74.88l19.6-37.21,1.09-2.07,4.61-8.75A3.46,3.46,0,0,0,117.85,115.94Z"/><path class="cls-7" d="M117.74,113.51l-1,2.18a4.47,4.47,0,0,1,1.16.25,3.46,3.46,0,0,1,2.1,2l1.67-3.16A6.15,6.15,0,0,0,117.74,113.51Z"/><path class="cls-5" d="M94.16,156.2,126.28,43a2.81,2.81,0,1,1,5.41,1.54l0,.1-36.19,112a.68.68,0,0,1-.86.45A.69.69,0,0,1,94.16,156.2Z"/><path class="cls-3" d="M75,135.09a1.87,1.87,0,0,1,1.15,1.78,1.86,1.86,0,1,0-1.32-2.53,2,2,0,0,0-.14.66A1.58,1.58,0,0,1,75,135.09Z"/><path class="cls-10" d="M23.51,210.49c.2.11.3-.3.43-.6l3-7.15v0l2.73-5.91a.87.87,0,1,0-1.6-.67l-2.22,6c-.24,0-1.78-.32-1.87-.08,0,0-.69,3.72-.77,5C23.14,208,22.76,210.08,23.51,210.49Z"/></g></g></g></svg>